<?xml version="1.0" encoding="utf-8"?>
<!-- Generator: Adobe Illustrator 25.0.0, SVG Export Plug-In . SVG Version: 6.00 Build 0)  -->
<svg version="1.1" id="Camada_1" xmlns="http://www.w3.org/2000/svg" xmlns:xlink="http://www.w3.org/1999/xlink" x="0px" y="0px"
	 viewBox="0 0 128 128" style="enable-background:new 0 0 128 128;" xml:space="preserve">
<style type="text/css">
	.st0{fill:#555555;}
</style>
<g>
	<path class="st0" d="M64.6,100.5c-9.3,0-17.1-6.3-17.1-13.9H31.2c0,14.1,10.8,26,25.2,29.3v12.6h16.3v-12.6
		c14.5-3.3,25.2-15.2,25.2-29.3c0-16.7-15-30.2-33.4-30.2c-9.3,0-17.1-6.3-17.1-13.9S55,28.6,64.5,28.6s17,6.4,17,14h16.3
		c0-14.1-10.8-26-25.2-29.3V0.5H56.4v12.6c-14.5,3.3-25.2,15.2-25.2,29.3c0,16.7,15,30.2,33.4,30.2c9.3,0,17.1,6.3,17.1,13.9
		C81.7,94.2,73.9,100.5,64.6,100.5z"/>
</g>
</svg>
