<?xml version="1.0" encoding="utf-8"?>
<!-- Generator: Adobe Illustrator 25.0.0, SVG Export Plug-In . SVG Version: 6.00 Build 0)  -->
<svg version="1.1" id="Layer_1" xmlns="http://www.w3.org/2000/svg" xmlns:xlink="http://www.w3.org/1999/xlink" x="0px" y="0px"
	 viewBox="0 0 128 128" style="enable-background:new 0 0 128 128;" xml:space="preserve">
<style type="text/css">
	.st0{fill:#555555;}
</style>
<path class="st0" d="M46,92h-1.9c-1.8,0-3.4-1.1-3.9-2.8c-0.6-2,0.4-4.2,2.4-4.9l30-11.5c2.1-0.8,3.1-3.2,2.2-5.3
	C63,39.1,60,4.1,60,3.7c-0.3-3.8-5.2-5.1-7.3-1.9l-5.8,8.7l-8.7-5.8c-2.3-1.5-5.4-0.3-6.1,2.4l-2.6,10.5l-7.3-4.8
	c-2.3-1.5-5.4-0.3-6.1,2.4l-2.6,10.5l-7.3-4.8C3.4,18.8-0.2,21,0,24.3c0.1,1,2.1,25.7,9.6,50.8c4.5,15,10,26.9,16.4,35.6
	c4.5,6.1,11.4,9.2,18.4,9.2h1.4c7.7,0,14.1-6.1,14.2-13.8C60.1,98.4,53.8,92,46,92L46,92z M20.3,49.5c-0.8-2,0.2-4.4,2.2-5.2l20-8
	c2-0.8,4.4,0.2,5.2,2.2s-0.2,4.4-2.2,5.2C23.8,52.4,25.1,52,24,52C22.4,52,20.9,51,20.3,49.5z M29.5,67.7c-2,0.8-4.4-0.2-5.2-2.2
	c-0.8-2,0.2-4.4,2.2-5.2l20-8c2-0.8,4.4,0.2,5.2,2.2s-0.2,4.4-2.2,5.2L29.5,67.7z M108,68c-1,0,1-0.7-27.9,10.4
	c0-0.1-19.3,7.4-19.3,7.4c-1.4,0.5-1.7,2.4-0.6,3.4c12.2,10.3,9.6,29.7-4.8,36.6c-1.1,0.5-0.7,2.1,0.5,2.1c3.3,0,6.5-0.8,9.3-2.3
	l43.1-17.8c0.8-0.1,1.6-0.4,2.2-0.9c11.7-4.8,11.1-4.5,11.9-5.3C134.6,89.1,125.5,68,108,68z"/>
<path class="st0" d="M102.8,46.8c-1.6,1.6-6.4,1.6-8,0s-4.1-1.6-5.7,0s-1.6,4.1,0,5.7c1.7,1.7,4.1,2.8,6.8,3.3V60c0,2.2,1.8,4,4,4
	s4-1.8,4-4v-4.8c10.5-3.6,10.2-17.6,0.6-21.6l-6-2.6c-3.2-1.3-3.8-7,2.7-7c2,0,3.4,0.6,4,1.2c1.6,1.6,4.1,1.6,5.7,0s1.6-4.1,0-5.7
	c-1.7-1.7-4.1-2.8-6.8-3.3V12c0-2.2-1.8-4-4-4s-4,1.8-4,4v4.8c-10.4,3.5-10.3,17.6-0.6,21.6l6.1,2.5C103.8,41.9,104.7,45,102.8,46.8
	L102.8,46.8z"/>
</svg>
