<?xml version="1.0" encoding="utf-8"?>
<!-- Generator: Adobe Illustrator 25.0.0, SVG Export Plug-In . SVG Version: 6.00 Build 0)  -->
<svg version="1.1" id="Capa_1" xmlns="http://www.w3.org/2000/svg" xmlns:xlink="http://www.w3.org/1999/xlink" x="0px" y="0px"
	 viewBox="0 0 512 512" style="enable-background:new 0 0 512 512;" xml:space="preserve">
<style type="text/css">
	.st0{fill:#555555;}
</style>
<g>
	<g>
		<path class="st0" d="M119.6,103.8l204.1-55.7l-10.8-21.8c-7.1-14.2-24.3-20.1-38.5-13L91.7,103.8H119.6z"/>
		<path class="st0" d="M387.1,49.7c-2.5,0-5.1,0.3-7.6,1l-48,13.1l-146.4,40h166.2h72.4l-9-32.9C411.4,58.1,399.8,49.7,387.1,49.7z"
			/>
		<path class="st0" d="M453.8,123.9h-6.6h-8.9h-8.9h-68h-250H78.7H51.1H46H28.8c-9.1,0-17.2,4.2-22.5,10.8c-2.4,3-4.3,6.6-5.3,10.4
			c-0.6,2.4-1,4.9-1,7.5v3.4v32.8V473c0,15.9,12.9,28.7,28.7,28.7h425c15.9,0,28.7-12.9,28.7-28.7v-80.2H311.9
			c-27,0-48.9-21.9-48.9-48.9v-26.3v-8.9v-8.9V280c0-13.2,5.3-25.2,13.9-34c7.6-7.8,17.8-13.1,29.2-14.4c1.9-0.2,3.9-0.3,5.8-0.3
			h146.7h8.9h8.9h6.1v-78.5C482.5,136.8,469.6,123.9,453.8,123.9z"/>
		<path class="st0" d="M502.6,258.7c-2.9-2.6-6.3-4.7-10.1-6c-2.9-1-6-1.6-9.3-1.6h-0.7h-0.6H473h-32.1h-129
			c-15.9,0-28.7,12.9-28.7,28.7v14.3v8.9v8.9v31.9c0,15.9,12.9,28.7,28.7,28.7h170.6h0.7c3.3,0,6.4-0.6,9.3-1.6
			c3.8-1.3,7.2-3.3,10.1-6c5.7-5.2,9.4-12.8,9.4-21.2v-64C512,271.5,508.4,263.9,502.6,258.7z M371.9,317.6
			c0,7.9-6.4,14.4-14.4,14.4H348c-7.9,0-14.4-6.4-14.4-14.4V308c0-4.6,2.1-8.7,5.5-11.3c2.5-1.9,5.5-3.1,8.9-3.1h2.4h7.1
			c7.9,0,14.4,6.4,14.4,14.4V317.6L371.9,317.6z"/>
	</g>
</g>
</svg>
