<?xml version="1.0" encoding="utf-8"?>
<!-- Generator: Adobe Illustrator 24.3.0, SVG Export Plug-In . SVG Version: 6.00 Build 0)  -->
<svg version="1.1" id="Capa_1" xmlns="http://www.w3.org/2000/svg" xmlns:xlink="http://www.w3.org/1999/xlink" x="0px" y="0px"
	 viewBox="0 0 512 512" style="enable-background:new 0 0 512 512;" xml:space="preserve">
<style type="text/css">
	.st0{fill:#DFDFE1;}
</style>
<g>
	<g>
		<path class="st0" d="M501.3,213.3H10.7C4.3,213.3,0,217.6,0,224v149.3c0,29.9,23.5,53.3,53.3,53.3h405.3
			c29.9,0,53.3-23.5,53.3-53.3V224C512,217.6,507.7,213.3,501.3,213.3z M74.7,298.7H160c6.4,0,10.7,4.3,10.7,10.7S166.4,320,160,320
			H74.7c-6.4,0-10.7-4.3-10.7-10.7S68.3,298.7,74.7,298.7z M224,362.7H74.7c-6.4,0-10.7-4.3-10.7-10.7s4.3-10.7,10.7-10.7H224
			c6.4,0,10.7,4.3,10.7,10.7C234.7,358.4,230.4,362.7,224,362.7z M405.3,362.7c-8.5,0-14.9-2.1-21.3-6.4c-6.4,4.3-12.8,6.4-21.3,6.4
			c-23.5,0-42.7-19.2-42.7-42.7s19.2-42.7,42.7-42.7c8.5,0,14.9,2.1,21.3,6.4c6.4-4.3,12.8-6.4,21.3-6.4c23.5,0,42.7,19.2,42.7,42.7
			S428.8,362.7,405.3,362.7z"/>
	</g>
</g>
<g>
	<g>
		<path class="st0" d="M458.7,85.3H53.3C23.5,85.3,0,108.8,0,138.7V160c0,6.4,4.3,10.7,10.7,10.7h490.7c6.4,0,10.7-4.3,10.7-10.7
			v-21.3C512,108.8,488.5,85.3,458.7,85.3z"/>
	</g>
</g>
</svg>
