<?xml version="1.0" encoding="utf-8"?>
<!-- Generator: Adobe Illustrator 25.0.0, SVG Export Plug-In . SVG Version: 6.00 Build 0)  -->
<svg version="1.1" id="Capa_1" xmlns="http://www.w3.org/2000/svg" xmlns:xlink="http://www.w3.org/1999/xlink" x="0px" y="0px"
	 viewBox="0 0 128 128" style="enable-background:new 0 0 128 128;" xml:space="preserve">
<style type="text/css">
	.st0{fill:#555555;}
</style>
<g>
	<path class="st0" d="M64,46.1c-4.3,0-7.9-2.9-7.9-6.4h-7.5c0,6.5,5,12,11.6,13.5V59h7.5v-5.8c6.7-1.5,11.6-7,11.6-13.5
		c0-7.7-6.9-13.9-15.4-13.9c-4.3,0-7.9-2.9-7.9-6.4s3.5-6.4,7.9-6.4s7.9,2.9,7.9,6.4h7.5c0-6.5-5-12-11.6-13.5V0h-7.5v5.8
		c-6.7,1.5-11.6,7-11.6,13.5c0,7.7,6.9,13.9,15.4,13.9c4.3,0,7.9,2.9,7.9,6.4C71.9,43.2,68.3,46.1,64,46.1z"/>
	<path class="st0" d="M125.2,63.7c-3.5-3.4-9.1-3.3-12.6,0.1l-22.9,23h-9.9c-2.6,2.3-6,3.8-9.7,3.8H47.8v-7.5h22.8
		c3.9,0,7-3.2,7-7.1s-3.2-7.1-7-7.1H38.3c-6.5,0-12.7,2.6-17.3,7.2L0,97.2V128h14.5l20.4-19.1h59.5l31-32.3
		C128.9,73,128.9,67.2,125.2,63.7L125.2,63.7z"/>
</g>
</svg>
