<?xml version="1.0" encoding="utf-8"?>
<!-- Generator: Adobe Illustrator 25.0.0, SVG Export Plug-In . SVG Version: 6.00 Build 0)  -->
<svg version="1.1" id="Capa_1" xmlns="http://www.w3.org/2000/svg" xmlns:xlink="http://www.w3.org/1999/xlink" x="0px" y="0px"
	 viewBox="0 0 128 128" style="enable-background:new 0 0 128 128;" xml:space="preserve">
<style type="text/css">
	.st0{fill:#555555;}
</style>
<g>
	<path class="st0" d="M106.3,17.5C95,6.2,80,0,64,0S33,6.2,21.7,17.5C10.4,28.9,4.1,43.9,4.1,59.9s6.2,31,17.5,42.4
		c9.3,9.3,21.1,15.2,33.9,17l-3.5,3.5l5.3,5.3L69,116.4l-10.2-13.2l-5.9,4.6l3.1,4c-25.1-4-44.4-25.8-44.4-51.9
		C11.6,31,35.1,7.5,64,7.5s52.4,23.5,52.4,52.4c0,21-12.5,39.9-31.8,48.2l2.9,6.9c22-9.5,36.3-31.1,36.3-55.1
		C123.9,43.9,117.6,28.9,106.3,17.5L106.3,17.5z"/>
	<path class="st0" d="M64,43.6c4.2,0,7.7,2.8,7.7,6.3h7.5c0-6.4-4.9-11.8-11.4-13.3V31h-7.5v5.6c-6.6,1.5-11.4,6.9-11.4,13.3
		c0,7.6,6.8,13.7,15.2,13.7c4.2,0,7.7,2.8,7.7,6.3c0,3.4-3.4,6.3-7.7,6.3s-7.7-2.8-7.7-6.3h-7.5c0,6.4,4.9,11.8,11.4,13.3v5.6h7.5
		v-5.6c6.6-1.5,11.4-6.9,11.4-13.3c0-7.6-6.8-13.7-15.2-13.7c-4.2,0-7.7-2.8-7.7-6.3C56.3,46.5,59.8,43.6,64,43.6L64,43.6z"/>
</g>
</svg>
