<?xml version="1.0" encoding="utf-8"?>
<!-- Generator: Adobe Illustrator 25.0.0, SVG Export Plug-In . SVG Version: 6.00 Build 0)  -->
<svg version="1.1" id="Capa_1" xmlns="http://www.w3.org/2000/svg" xmlns:xlink="http://www.w3.org/1999/xlink" x="0px" y="0px"
	 viewBox="0 0 512 512" style="enable-background:new 0 0 512 512;" xml:space="preserve">
<style type="text/css">
	.st0{fill:#555555;}
</style>
<g>
	<path class="st0" d="M30,406h452v50H30V406z"/>
	<path class="st0" d="M443.7,56c0,40,30.6,72.5,68.3,72.8V56H443.7z"/>
	<path class="st0" d="M443.7,375.2v0.8H512v-73.6C474.3,302.7,443.7,335.3,443.7,375.2z"/>
	<path class="st0" d="M69.2,375.2c0-40.1-30.8-72.8-68.8-72.8H0V376h69.2V375.2z"/>
	<path class="st0" d="M69.2,56H0v72.8h0.4C38.4,128.8,69.2,96.1,69.2,56z"/>
	<path class="st0" d="M413.7,56H99.2c0,56.7-44.3,102.8-98.8,102.8H0v113.6h0.4c54.5,0,98.8,46.1,98.8,102.8v0.8h314.5v-0.8
		c0-56.5,44.1-102.5,98.3-102.8V158.8C457.8,158.5,413.7,112.5,413.7,56L413.7,56z M148.8,231h-50v-30h50V231z M256,201
		c29.2,0,53,21.6,53,48.2c0,21.8-16,40.3-38,46.2v16.7h-30v-16.7c-21.9-5.9-38-24.4-38-46.2h30c0,10,10.3,18.2,23,18.2
		c12.7,0,23-8.2,23-18.2c0-10-10.3-18.2-23-18.2c-29.2,0-53-21.6-53-48.2c0-21.8,16-40.3,38-46.2v-16.7h30v16.7
		c21.9,5.9,38,24.4,38,46.2h-30c0-10-10.3-18.2-23-18.2s-23,8.2-23,18.2S243.3,201,256,201L256,201z M413.3,231h-50v-30h50V231z"/>
</g>
</svg>
