<?xml version="1.0" encoding="utf-8"?>
<!-- Generator: Adobe Illustrator 24.3.0, SVG Export Plug-In . SVG Version: 6.00 Build 0)  -->
<svg version="1.1" id="Capa_1" xmlns="http://www.w3.org/2000/svg" xmlns:xlink="http://www.w3.org/1999/xlink" x="0px" y="0px"
	 viewBox="0 0 128 128" style="enable-background:new 0 0 128 128;" xml:space="preserve">
<style type="text/css">
	.st0{fill:#E31837;}
	.st1{fill:#012169;}
</style>
<path class="st0" d="M63.8,98.7C84,81.4,112.4,64.5,128,58.5c-2.4-1.5-6.2-3.8-10.4-6.2C97.5,58.9,74,73.7,53,90.3
	C56.6,93,60.3,95.8,63.8,98.7L63.8,98.7z"/>
<path class="st1" d="M54.6,51.6c-3-1.4-6.3-2.8-8.8-3.9c-7.6,3.8-17.5,9.4-30,18.4c2.7,1.4,5.6,3.2,8.7,4.9
	C34.1,63.9,43.8,57.1,54.6,51.6z"/>
<path class="st0" d="M72.6,43.4c-3.7-2-16.4-6.7-25.1-8.8c-2.6,1-6.3,2.4-8.8,3.5c3.2,0.9,15,4,25.1,9.1
	C66.4,46,70.1,44.4,72.6,43.4z"/>
<path class="st1" d="M29.5,42.1C18.3,47.3,6.4,54.4,0,58.6c2.3,1.1,4.6,1.9,7.8,3.5C22,52.4,33.2,46.5,37.6,44.6
	C34.5,43.5,31.5,42.7,29.5,42.1L29.5,42.1z"/>
<path class="st0" d="M81,40.4c2.6-0.9,5.6-1.6,8.2-2.4c-7.5-3.2-16.9-6.5-25.4-8.7c-1.3,0.4-5.4,1.4-8.2,2.3
	C58.5,32.5,68,34.7,81,40.4z M33.6,76.6c3.1,1.8,6.4,4.3,9.5,6.4C64.2,66.6,85,54,107.8,46.9c-3.2-1.6-6-3.1-9.5-4.8
	C84.6,45.6,61.2,54.9,33.6,76.6z"/>
</svg>
